<svg width="35" height="35" viewBox="0 0 35 35" fill="none" xmlns="http://www.w3.org/2000/svg">
<g clip-path="url(#clip0_284_560)">
<g filter="url(#filter0_d_284_560)">
<path d="M17.5 2.5C9.22909 2.5 2.5 9.22909 2.5 17.5C2.5 25.7709 9.22909 32.5 17.5 32.5C25.7709 32.5 32.5 25.7709 32.5 17.5C32.5 9.22909 25.7709 2.5 17.5 2.5ZM23.2692 18.6538H18.6538V23.2692C18.6538 23.5753 18.5323 23.8687 18.3159 24.0851C18.0995 24.3015 17.806 24.4231 17.5 24.4231C17.194 24.4231 16.9005 24.3015 16.6841 24.0851C16.4677 23.8687 16.3462 23.5753 16.3462 23.2692V18.6538H11.7308C11.4248 18.6538 11.1313 18.5323 10.9149 18.3159C10.6985 18.0995 10.5769 17.806 10.5769 17.5C10.5769 17.194 10.6985 16.9005 10.9149 16.6841C11.1313 16.4677 11.4248 16.3462 11.7308 16.3462H16.3462V11.7308C16.3462 11.4248 16.4677 11.1313 16.6841 10.9149C16.9005 10.6985 17.194 10.5769 17.5 10.5769C17.806 10.5769 18.0995 10.6985 18.3159 10.9149C18.5323 11.1313 18.6538 11.4248 18.6538 11.7308V16.3462H23.2692C23.5753 16.3462 23.8687 16.4677 24.0851 16.6841C24.3015 16.9005 24.4231 17.194 24.4231 17.5C24.4231 17.806 24.3015 18.0995 24.0851 18.3159C23.8687 18.5323 23.5753 18.6538 23.2692 18.6538Z" fill="#2CB7AA"/>
</g>
</g>
<defs>
<filter id="filter0_d_284_560" x="-1.18807" y="0.655963" width="37.3761" height="37.3761" filterUnits="userSpaceOnUse" color-interpolation-filters="sRGB">
<feFlood flood-opacity="0" result="BackgroundImageFix"/>
<feColorMatrix in="SourceAlpha" type="matrix" values="0 0 0 0 0 0 0 0 0 0 0 0 0 0 0 0 0 0 127 0" result="hardAlpha"/>
<feOffset dy="1.84404"/>
<feGaussianBlur stdDeviation="1.84404"/>
<feComposite in2="hardAlpha" operator="out"/>
<feColorMatrix type="matrix" values="0 0 0 0 0.2 0 0 0 0 0.411765 0 0 0 0 0.584314 0 0 0 0.2 0"/>
<feBlend mode="normal" in2="BackgroundImageFix" result="effect1_dropShadow_284_560"/>
<feBlend mode="normal" in="SourceGraphic" in2="effect1_dropShadow_284_560" result="shape"/>
</filter>
<clipPath id="clip0_284_560">
<rect width="35" height="35" fill="white"/>
</clipPath>
</defs>
</svg>
